<?xml version="1.0" encoding="utf-8"?>
<svg viewBox="0 0 500 500" xmlns="http://www.w3.org/2000/svg">
  <title>show</title>
  <title>hide</title>
  <path d="M 78.134 39.324 L 438.134 399.324 L 406.134 431.324 L 332.134 357.324 C 304.801 371.991 274.801 379.324 242.134 379.324 C 199.468 379.324 160.134 366.324 124.134 340.324 C 87.468 314.324 57.468 279.324 34.134 235.324 C 44.134 217.324 56.801 199.324 72.134 181.324 C 86.801 162.657 100.801 148.657 114.134 139.324 L 46.134 71.324 L 78.134 39.324 Z M 338.134 235.324 C 338.134 208.657 328.801 185.991 310.134 167.324 C 291.468 148.657 268.801 139.324 242.134 139.324 L 199.134 96.324 C 215.801 92.991 230.134 91.324 242.134 91.324 C 285.468 91.324 325.468 104.657 362.134 131.324 C 398.134 157.991 427.468 192.657 450.134 235.324 C 446.134 243.991 439.801 254.657 431.134 267.324 C 422.468 279.991 413.468 291.324 404.134 301.324 L 338.134 235.324 Z M 242.134 331.324 C 260.134 331.324 276.801 326.657 292.134 317.324 L 263.134 288.324 C 256.468 290.324 249.468 291.324 242.134 291.324 C 226.801 291.324 213.801 285.991 203.134 275.324 C 191.801 263.991 186.134 250.657 186.134 235.324 C 186.134 229.324 187.468 222.657 190.134 215.324 L 160.134 185.324 C 150.801 200.657 146.134 217.324 146.134 235.324 C 146.134 261.991 155.468 284.657 174.134 303.324 C 192.801 321.991 215.468 331.324 242.134 331.324 Z" style="fill: rgb(107, 114, 128);"/>
</svg>