<?xml version="1.0" encoding="utf-8"?>
<svg viewBox="184.723 2.659 309.558 492.385" xmlns="http://www.w3.org/2000/svg">
  <path d="M 222.244 9.792 C 225.098 6.952 228.96 5.353 232.983 5.361 L 445.328 5.361 C 453.706 5.361 460.49 12.153 460.49 20.531 C 460.49 41.155 450.12 56.142 440.897 65.394 C 437.074 69.188 433.313 72.188 430.158 74.435 L 430.158 208.842 L 432.528 210.304 C 438.681 214.158 446.968 219.827 455.305 227.136 C 471.414 241.214 490.831 264.023 490.831 293.54 C 490.831 301.917 484.039 308.703 475.661 308.703 L 354.322 308.703 L 354.322 445.212 C 354.322 453.581 347.53 490.715 339.159 490.715 C 330.781 490.715 323.989 453.581 323.989 445.212 L 323.989 308.703 L 202.65 308.703 C 194.273 308.703 187.48 301.917 187.48 293.54 C 187.48 264.023 206.897 241.214 222.974 227.136 C 230.821 220.321 239.245 214.205 248.153 208.842 L 248.153 74.435 C 244.331 71.727 240.738 68.704 237.414 65.394 C 228.192 56.142 217.822 41.125 217.822 20.531 C 217.814 16.507 219.405 12.645 222.244 9.792 Z" style="fill: rgb(239, 68, 68);"/>
</svg>