<?xml version="1.0" encoding="utf-8"?>
<svg viewBox="0 0 500 500" xmlns="http://www.w3.org/2000/svg">
  <g transform="matrix(0.419427, 0, 0, 0.419427, 34.852825, 33.961113)" style="">
    <path d="M949.2,745H50.8c-11.1,0-20.6,4-28.7,12.1C14,765.2,10,774.8,10,785.8v81.7c0,11.1,4,20.6,12.1,28.7c8.1,8.1,17.7,12.1,28.7,12.1h898.3c11.1,0,20.6-4,28.7-12.1c8.1-8.1,12.1-17.7,12.1-28.7v-81.7c0-11.1-4-20.6-12.1-28.7C969.8,749,960.2,745,949.2,745z" style="fill: rgb(107, 114, 128);"/>
    <path d="M977.9,103.8c-8.1-8.1-17.7-12.1-28.7-12.1H50.8c-11.1,0-20.6,4-28.7,12.1C14,111.9,10,121.4,10,132.5v81.7c0,11.1,4,20.6,12.1,28.7C30.2,251,39.8,255,50.8,255h898.3c11.1,0,20.6-4,28.7-12.1c8.1-8.1,12.1-17.7,12.1-28.7v-81.7C990,121.4,986,111.9,977.9,103.8z" style="fill: rgb(107, 114, 128);"/>
    <path d="M949.2,418.3H50.8c-11.1,0-20.6,4-28.7,12.1C14,438.5,10,448.1,10,459.2v81.7c0,11.1,4,20.6,12.1,28.7c8.1,8.1,17.7,12.1,28.7,12.1h898.3c11.1,0,20.6-4.1,28.7-12.1c8.1-8.1,12.1-17.7,12.1-28.7v-81.7c0-11.1-4-20.6-12.1-28.7C969.8,422.4,960.2,418.3,949.2,418.3z" style="fill: rgb(107, 114, 128);"/>
  </g>
</svg>