<?xml version="1.0" encoding="utf-8"?>
<svg viewBox="0 0 500 500" xmlns="http://www.w3.org/2000/svg">
  <title>show</title>
  <path d="M 252.073 365.006 C 207.406 365.006 167.073 352.006 131.073 326.006 C 94.406 300.006 65.406 265.006 44.073 221.006 C 65.406 177.006 94.406 142.006 131.073 116.006 C 167.073 90.006 207.406 77.006 252.073 77.006 C 294.74 77.006 334.74 90.673 372.073 118.006 C 409.406 144.673 438.74 179.006 460.073 221.006 C 438.74 263.006 409.406 297.673 372.073 325.006 C 334.74 351.673 294.74 365.006 252.073 365.006 Z M 252.073 317.006 C 278.74 317.006 301.406 307.673 320.073 289.006 C 338.74 270.339 348.073 247.673 348.073 221.006 C 348.073 194.339 338.74 171.673 320.073 153.006 C 301.406 134.339 278.74 125.006 252.073 125.006 C 225.406 125.006 202.74 134.339 184.073 153.006 C 165.406 171.673 156.073 194.339 156.073 221.006 C 156.073 247.673 165.406 270.339 184.073 289.006 C 202.74 307.673 225.406 317.006 252.073 317.006 Z M 252.073 277.006 C 236.74 277.006 223.74 271.673 213.073 261.006 C 201.74 249.673 196.073 236.339 196.073 221.006 C 196.073 205.673 201.74 192.673 213.073 182.006 C 223.74 170.673 236.74 165.006 252.073 165.006 C 267.406 165.006 280.74 170.673 292.073 182.006 C 302.74 192.673 308.073 205.673 308.073 221.006 C 308.073 236.339 302.74 249.673 292.073 261.006 C 280.74 271.673 267.406 277.006 252.073 277.006 Z" style="fill: rgb(107, 114, 128);"/>
</svg>